<svg width="400" height="400" viewBox="0 0 400 400" fill="none" xmlns="http://www.w3.org/2000/svg">
<rect width="400" height="400" fill="#F3F4F6"/>
<path d="M200 120C194.477 120 190 124.477 190 130V170C190 175.523 194.477 180 200 180C205.523 180 210 175.523 210 170V130C210 124.477 205.523 120 200 120Z" fill="#9CA3AF"/>
<path d="M140 160C134.477 160 130 164.477 130 170V210C130 215.523 134.477 220 140 220C145.523 220 150 215.523 150 210V170C150 164.477 145.523 160 140 160Z" fill="#9CA3AF"/>
<path d="M260 160C254.477 160 250 164.477 250 170V210C250 215.523 254.477 220 260 220C265.523 220 270 215.523 270 210V170C270 164.477 265.523 160 260 160Z" fill="#9CA3AF"/>
<path d="M120 220H280C288.284 220 295 226.716 295 235V265C295 273.284 288.284 280 280 280H120C111.716 280 105 273.284 105 265V235C105 226.716 111.716 220 120 220Z" fill="#9CA3AF"/>
<text x="200" y="320" text-anchor="middle" fill="#6B7280" font-family="Arial, sans-serif" font-size="16" font-weight="500">Product Image</text>
</svg>
